# xmcd CD database file
#
# Track frame offsets:
#	150
#	23851
#	45747
#	69050
#	88592
#	108953
#	130713
#	141377
#	161280
#	177604
#
# Disc length: 2631 seconds
#
# Revision: 0
# Processed by: cddbd v1.5.1PL0 Copyright (c) Steve Scherf et al.
# Submitted via: CDex 1.51
#
DISCID=7e0a450a
DTITLE=Eric King and the Thin Line - Shake These Blues
DYEAR=1900
DGENRE=Blues
TTITLE0=Shell Of A Man
TTITLE1=Shake These Blues
TTITLE2=What Would You Do?
TTITLE3=Hind Sight
TTITLE4=Some Kinda Fix
TTITLE5=End Of The Line
TTITLE6=What's Your Name?
TTITLE7=Take It Slow
TTITLE8=Long Gone
TTITLE9=Brighter Side
EXTD=
EXTT0=
EXTT1=
EXTT2=
EXTT3=
EXTT4=
EXTT5=
EXTT6=
EXTT7=
EXTT8=
EXTT9=
PLAYORDER=
